#!OML:ASF E:/inclinewalkrobotboard/Project1/Captureday1/Session1/subject1.ASF
:FULLY-SPECIFIED
:DEGREES
338
root 0 0 0 1.8722640538412771 -10.631246326207663 0.8820540022193705
lowerback -0.23331571847556165 -1.7005022229699862 -2.674547024694463
upperback -0.41033470988623943 -2.2228709891785483 1.676346009073796
thorax -0.17740042534965883 -1.1120251220215702 3.155662680224828
lowerneck -25.06341412931694 -1.7916967522566067 -7.8185846498342
upperneck 27.15569698814602 -0.007034257106873443 2.199055943574293
head 13.30762174461418 -0.6260763123210429 2.2784465632392408
rclavicle -4.354010037516263E-15 1.977686564342791E-15
rhumerus -31.920723031574475 -3.844522142965845 -81.16841248779208
rradius 30.765280948988103
rwrist 19.033670645022408
rhand -17.795722629905544 9.301253450291043
rfingers 7.1250199999999255
rthumb 8.461788207183433 -20.464624595563983
lclavicle -6.71891650017061E-15 4.135050948265635E-15
lhumerus -21.816764698532328 -2.430169938773417 91.77619011629614
lradius 61.956336894147256
lwrist 2.782659361156978
lhand -27.955236071151177 21.39136925433055
lfingers 7.125020000000006
lthumb -1.368747658369272 51.413337927472135
rfemur -20.94203080332178 -0.8480266235994147 20.561098423839674
rtibia 72.8979736757536
rfoot -1.5449783701647455 -6.286775907655475
rtoes 6.780765627212391
lfemur -10.700376910035846 -3.102289410592003 -25.470877922783266
ltibia 26.160565749582723
lfoot -13.016185162318642 1.0506536169525136
ltoes 10.21470387172208
339
root 0 0 0 1.901835551666433 -10.650252918518092 0.8782605899261956
lowerback -0.23130930303781683 -1.7190987254693488 -2.6725530323780293
upperback -0.3640498765289093 -2.248108133133535 1.6737344345493983
thorax -0.12307861871541981 -1.1269910847385203 3.151430585776369
lowerneck -25.026079698402356 -1.7784897650035103 -7.849343459963584
upperneck 27.356577035583776 0.01377528893195168 2.190498919156937
head 13.365338309365635 -0.6207812816346636 2.285582439260671
rclavicle -3.3783207744159446E-15 1.6680903341517984E-15
rhumerus -32.05297251219798 -3.877731741699623 -80.9800332310048
rradius 30.633755500296658
rwrist 19.087451006751863
rhand -17.786217118726316 9.31083998772085
rfingers 7.125019999999925
rthumb 8.470891320796396 -20.456069678797675
lclavicle -6.626096138562172E-15 3.8279661561860094E-15
lhumerus -22.220774590542955 -3.6374989744223614 91.83752833287552
lradius 62.43143336668544
lwrist 3.148732501709781
lhand -27.801895957836592 21.65791756144794
lfingers 7.125020000000005
lthumb -1.2223803040021233 51.69578368706496
rfemur -26.64141651041033 -1.3036103533715675 19.909775942657575
rtibia 69.4868031653276
rfoot -4.197807242650219 -7.176909583144928
rtoes 4.199800385458823
lfemur -4.526065671669617 -3.5029774357516397 -27.798420594380115
ltibia 22.116122832899105
lfoot -18.649838230090374 2.438527602105102
ltoes 7.875547156849468
340
root 0 0 0 1.9327072972416364 -10.689880660555541 0.8814277957120688
lowerback -0.2498728926658924 -1.744205635530161 -2.673950529277169
upperback -0.3193379853529021 -2.2815435297236073 1.6710821561117966
thorax -0.05945251871044621 -1.14611126064064 3.14991256833818
lowerneck -25.050826475080942 -1.7763782581401082 -7.889262485028164
upperneck 27.51956859675525 0.025446337445763745 2.1857874163182354
head 13.419397829356814 -0.6180526099491837 2.2925649712200253
rclavicle -3.069812569522326E-15 1.425350640696261E-15
rhumerus -32.198680340139674 -3.4605651763141476 -80.65883868754959
rradius 30.45304708303477
rwrist 19.116003736964306
rhand -17.86608859440904 9.321974818792317
rfingers 7.125019999999926
rthumb 8.394563380895363 -20.454046661215767
lclavicle -6.104330964487825E-15 3.598393821720162E-15
lhumerus -22.757543516029546 -4.972185773721455 91.93584812646351
lradius 62.90426980134284
lwrist 3.5300887469409075
lhand -27.619316472790324 21.872544200679712
lfingers 7.125020000000001
lthumb -1.0488059633884177 51.927988518409684
rfemur -28.953812604553057 -0.7525276514650248 19.7857492193059
rtibia 62.22486947388267
rfoot -4.8048956647129994 -8.24043932564414
rtoes 1.7917080918296948
lfemur -0.24711570161370366 -3.7191342182130045 -28.95404913101779
ltibia 19.50930087817868
lfoot -21.264204188068184 2.243187421913219
ltoes 4.843347980673169
341
root 0 0 0 1.957558535842734 -10.723255473570815 0.8891076820078605
lowerback -0.2659125874966657 -1.7651589632533973 -2.6775025673597304
upperback -0.28543345061999037 -2.3097830243122512 1.6725436979175137
thorax -0.010610355830710683 -1.1619717873350637 3.153996182340207
lowerneck -25.107814503960043 -1.7779319845198964 -7.918772909417001
upperneck 27.580252433882755 0.03179223749216831 2.187790195814338
head 13.44518942107609 -0.6142828242709927 2.2986710293697437
rclavicle -2.5967246705791064E-15 9.903832657889007E-16
rhumerus -32.4611431833814 -3.006272026607037 -80.15228977737898
rradius 30.142763572592177
rwrist 19.22097421608503
rhand -17.939809067914435 9.323000360976154
rfingers 7.12501999999993
rthumb 8.32408345382782 -20.467227920445943
lclavicle -4.935254792570231E-15 3.217001643920469E-15
lhumerus -23.029272086660622 -6.074935254119055 91.86917640933518
lradius 63.38079230375594
lwrist 3.909180120295691
lhand -27.435384854015965 22.200484596326003
lfingers 7.1250199999999975
lthumb -0.8722662060457411 52.2739055001994
rfemur -31.020354331195126 0.6858181309259761 18.41896296083507
rtibia 50.82546446854452
rfoot -4.4652859699041745 -9.926385723297592
rtoes -1.0402670118180462
lfemur 3.4189873891192377 -3.9282288681527966 -29.643452089847088
ltibia 17.366285801522103
lfoot -22.090716092061307 1.3731982214905791
ltoes 1.7655106596231231
342
root 0 0 0 1.9786462133830651 -10.755180372272937 0.9047053338107173
lowerback -0.2721384900985071 -1.7862716408284984 -2.681219722376417
upperback -0.25845667048138377 -2.337839710117428 1.6837829013945083
thorax 0.024384346108579313 -1.1776401969522776 3.1687006460669096
lowerneck -25.247711133062708 -1.7814470685280281 -7.930345202414631
upperneck 27.433465234478582 0.04063181010431782 2.1942825292295858
head 13.412804830432993 -0.6035725148364463 2.3009514401116227
rclavicle -1.2749507580776468E-15 1.3125273916700303E-16
rhumerus -32.89151051936877 -2.660363872738944 -79.44778749523186
rradius 29.686962865678908
rwrist 19.456383313297692
rhand -17.970031897418753 9.289730566446107
rfingers 7.125019999999934
rthumb 8.294917474356673 -20.523123692537215
lclavicle -2.713645509047485E-15 2.522873258094746E-15
lhumerus -22.994703897405646 -7.029906135617592 91.62630737894756
lradius 63.94006192974246
lwrist 4.287757784916999
lhand -27.277960418874372 22.713447284238246
lfingers 7.125019999999991
lthumb -0.7189000259828768 52.80494035160383
rfemur -32.711124396619454 2.2703783200860572 17.171356698292325
rtibia 39.52113919565676
rfoot -4.306755202907368 -11.467372843904455
rtoes -3.355222804323227
lfemur 7.898684967411686 -4.288878835246967 -30.162165563442763
ltibia 15.279590737809752
lfoot -21.61890529590478 -0.11839676436361835
ltoes -1.881889188530545
